<svg id="Layer_1" data-name="Layer 1" xmlns="http://www.w3.org/2000/svg" viewBox="0 0 1044.95 96.57"><defs><style>.cls-1{fill:#bdcbb0;}</style></defs><path class="cls-1" d="M34.71,215.9l8.76-10.46c4.79,4.18,11,7.05,16.56,7.05,6.37,0,9.48-2.51,9.48-6.51,0-4.25-3.83-5.61-9.72-8L51,194.21c-7-2.84-13.61-8.58-13.61-18.38,0-11.18,10-20.1,24-20.1a31.17,31.17,0,0,1,21.69,8.84l-7.7,9.61c-4.44-3.41-8.67-5.29-14-5.29s-8.61,2.19-8.61,6.05c0,4.14,4.41,5.64,10.3,8l8.59,3.48c8.24,3.33,13.38,8.82,13.38,18.35,0,11.2-9.34,20.9-25.41,20.9A37.14,37.14,0,0,1,34.71,215.9Z" transform="translate(-34.71 -149.67)"/><path class="cls-1" d="M92.38,198.76c0-17.07,12-26.93,25-26.93s25,9.86,25,26.93-12,26.89-25,26.89S92.38,215.79,92.38,198.76Zm34.43,0c0-8.88-3.13-14.65-9.42-14.65S108,189.88,108,198.76s3.12,14.62,9.42,14.62S126.81,207.64,126.81,198.76Z" transform="translate(-34.71 -149.67)"/><path class="cls-1" d="M152.82,173.08h12.41l1.1,5h.37c4-3.59,9.26-6.3,14.62-6.3,12.43,0,20,10.28,20,26.1,0,17.62-10.48,27.72-21.6,27.72-4.41,0-8.56-1.93-12.24-5.35l.51,8.12v15H152.82Zm33,25c0-9.21-2.85-13.82-8.92-13.82-3.13,0-5.81,1.4-8.82,4.6V210a12.24,12.24,0,0,0,8.19,3.25C181.52,213.21,185.77,208.73,185.77,198.1Z" transform="translate(-34.71 -149.67)"/><path class="cls-1" d="M211.32,151.92h15.21v17.71l-.68,9.3c3.84-3.5,8.84-7.1,15.84-7.1,11.17,0,15.93,7.88,15.93,20.71v31.87H242.41V194.49c0-7.39-2-9.7-6.38-9.7-3.82,0-6.16,1.78-9.5,5v34.63H211.32Z" transform="translate(-34.71 -149.67)"/><path class="cls-1" d="M269.25,157.62c0-4.67,3.7-8,8.8-8s8.8,3.28,8.8,8-3.7,7.95-8.8,7.95S269.25,162.24,269.25,157.62Zm1.18,15.46h15.21v51.33H270.43Z" transform="translate(-34.71 -149.67)"/><path class="cls-1" d="M296,198.76c0-16.65,11.89-26.93,24.22-26.93,14.62,0,21.86,10.63,21.86,24.64a34.68,34.68,0,0,1-.63,6.73H310.76c1.37,7.44,6.46,10.86,13.32,10.86a21.43,21.43,0,0,0,11.1-3.36l5,9.17A33.43,33.43,0,0,1,322,225.65C307.36,225.65,296,215.75,296,198.76Zm33.09-5.62c0-5.65-2.46-9.71-8.53-9.71-4.81,0-9,3.22-10,9.71Z" transform="translate(-34.71 -149.67)"/><path class="cls-1" d="M352.23,181.32c6.23-3,9.35-7,9.35-13.17l-.41-8.93,5,6.92a9.13,9.13,0,0,1-5.59,2.22c-4.38,0-7.95-2.91-7.95-7.58,0-5.17,3.33-8.46,7.95-8.46,6.37,0,9.73,5,9.73,13.51,0,9.76-4.81,17.25-14.71,22.13Z" transform="translate(-34.71 -149.67)"/><path class="cls-1" d="M374.49,218.48l6.84-9.47c4.66,3.52,8.95,5.39,13.25,5.39,4.52,0,6.48-1.73,6.48-4.42,0-3.38-5.09-4.91-10.37-7-6.29-2.44-13.58-6.61-13.58-15.1,0-9.55,7.77-16.07,19.61-16.07a29.2,29.2,0,0,1,18.09,6.5L408,187.47c-3.65-2.65-7.25-4.39-10.8-4.39-3.94,0-5.87,1.54-5.87,4.1,0,3.28,4.81,4.53,10.13,6.47,6.5,2.4,13.83,6.06,13.83,15.44S408,225.65,394.2,225.65A33.28,33.28,0,0,1,374.49,218.48Z" transform="translate(-34.71 -149.67)"/><path class="cls-1" d="M446.87,157h24.28c14.31,0,26,5,26,21,0,15.5-11.72,22.17-26,22.17h-9v24.27H446.87Zm23,31.06c8,0,12.33-3.42,12.33-10.06s-4.31-8.89-12.33-8.89h-7.8V188Zm-1.55,8.09,10.55-9.75,21.52,38H483.37Z" transform="translate(-34.71 -149.67)"/><path class="cls-1" d="M505,198.76c0-16.65,11.89-26.93,24.22-26.93,14.62,0,21.86,10.63,21.86,24.64a34.68,34.68,0,0,1-.63,6.73H519.78c1.36,7.44,6.46,10.86,13.32,10.86a21.46,21.46,0,0,0,11.1-3.36l5,9.17A33.45,33.45,0,0,1,531,225.65C516.38,225.65,505,215.75,505,198.76Zm33.09-5.62c0-5.65-2.46-9.71-8.53-9.71-4.81,0-9,3.22-10,9.71Z" transform="translate(-34.71 -149.67)"/><path class="cls-1" d="M557.11,218.48,564,209c4.65,3.52,8.94,5.39,13.24,5.39,4.53,0,6.48-1.73,6.48-4.42,0-3.38-5.08-4.91-10.37-7-6.29-2.44-13.58-6.61-13.58-15.1,0-9.55,7.77-16.07,19.61-16.07a29.18,29.18,0,0,1,18.09,6.5l-6.8,9.14c-3.66-2.65-7.26-4.39-10.81-4.39-3.93,0-5.87,1.54-5.87,4.1,0,3.28,4.81,4.53,10.13,6.47,6.5,2.4,13.83,6.06,13.83,15.44s-7.33,16.56-21.09,16.56A33.28,33.28,0,0,1,557.11,218.48Z" transform="translate(-34.71 -149.67)"/><path class="cls-1" d="M604.53,198.76c0-16.65,11.89-26.93,24.22-26.93,14.62,0,21.86,10.63,21.86,24.64a34.68,34.68,0,0,1-.63,6.73H619.27c1.36,7.44,6.46,10.86,13.31,10.86a21.46,21.46,0,0,0,11.11-3.36l5,9.17a33.45,33.45,0,0,1-18.22,5.78C615.87,225.65,604.53,215.75,604.53,198.76Zm33.09-5.62c0-5.65-2.46-9.71-8.53-9.71-4.81,0-9,3.22-10,9.71Z" transform="translate(-34.71 -149.67)"/><path class="cls-1" d="M657.64,210.17c0-10.81,8.61-16.67,28.91-18.81-.3-4.49-2.54-7.42-8.11-7.42-4.31,0-8.61,1.81-13.59,4.63l-5.41-10c6.52-4,13.86-6.76,21.93-6.76,13.12,0,20.39,7.5,20.39,23.23v29.35H689.35l-1.09-5.26h-.38c-4.32,3.8-9.16,6.5-14.93,6.5C663.59,225.65,657.64,218.82,657.64,210.17Zm28.91-.67v-9c-10.81,1.46-14.34,4.55-14.34,8.43,0,3.31,2.27,4.93,5.89,4.93C681.54,213.89,683.85,212.19,686.55,209.5Z" transform="translate(-34.71 -149.67)"/><path class="cls-1" d="M714.56,173.08H727l1.1,9h.37c3.74-6.86,9.36-10.22,14.59-10.22a14.19,14.19,0,0,1,6.12,1L746.62,186a21,21,0,0,0-5.54-.83c-3.87,0-8.57,2.49-11.31,9.49v29.75H714.56Z" transform="translate(-34.71 -149.67)"/><path class="cls-1" d="M751.75,198.76c0-17.07,12.57-26.93,26.75-26.93a22.35,22.35,0,0,1,15,5.53l-7.19,9.78c-2.46-2.08-4.51-3-7-3-7.31,0-12,5.77-12,14.65s4.89,14.62,11.5,14.62c3.37,0,6.6-1.67,9.26-3.79l6,9.95a25.62,25.62,0,0,1-16.92,6.11C762.81,225.65,751.75,215.79,751.75,198.76Z" transform="translate(-34.71 -149.67)"/><path class="cls-1" d="M803.08,151.92h15.21v17.71l-.68,9.3c3.85-3.5,8.85-7.1,15.85-7.1,11.16,0,15.92,7.88,15.92,20.71v31.87H834.17V194.49c0-7.39-2-9.7-6.37-9.7-3.83,0-6.16,1.78-9.51,5v34.63H803.08Z" transform="translate(-34.71 -149.67)"/><path class="cls-1" d="M884.17,157h23.08c14,0,24.87,3.85,24.87,16.73,0,6.05-3.38,12.49-8.88,14.56v.41c6.89,1.79,12.21,6.87,12.21,15.87,0,13.72-11.6,19.87-26.27,19.87h-25Zm22.38,27c7.4,0,10.67-3.12,10.67-8,0-5.2-3.46-7.21-10.56-7.21h-7.24V184Zm1.39,28.66c8.31,0,12.6-2.95,12.6-9.08,0-5.92-4.22-8.33-12.6-8.33h-8.52v17.41Z" transform="translate(-34.71 -149.67)"/><path class="cls-1" d="M945.54,208.46V151.92h15.21v57.16c0,3.26,1.51,4.3,2.75,4.3a6.49,6.49,0,0,0,1.86-.21l1.82,11.22a19.68,19.68,0,0,1-7.64,1.26C949.11,225.65,945.54,218.85,945.54,208.46Z" transform="translate(-34.71 -149.67)"/><path class="cls-1" d="M972.17,198.76c0-17.07,12-26.93,25-26.93s25,9.86,25,26.93-12,26.89-25,26.89S972.17,215.79,972.17,198.76Zm34.42,0c0-8.88-3.13-14.65-9.42-14.65s-9.42,5.77-9.42,14.65,3.13,14.62,9.42,14.62S1006.59,207.64,1006.59,198.76Z" transform="translate(-34.71 -149.67)"/><path class="cls-1" d="M1029.46,233.22c0-4.26,2.55-7.7,7.28-10.33v-.41a10,10,0,0,1-4.69-8.72c0-3.7,2.46-7.32,5.72-9.62v-.41a16.4,16.4,0,0,1-6.89-13.32c0-12.32,10.18-18.58,21.23-18.58a24.73,24.73,0,0,1,8,1.25h18.77v11.08h-8.25a13.44,13.44,0,0,1,1.74,6.76c0,11.81-9,17.25-20.21,17.25a21.82,21.82,0,0,1-6.27-1,4.41,4.41,0,0,0-1.79,3.82c0,2.54,2.08,3.77,7.69,3.77h8.32c12.59,0,19.6,3.85,19.6,13.05,0,10.66-11.11,18.43-28.73,18.43C1039,246.24,1029.46,242.35,1029.46,233.22Zm35.64-2.82c0-3.24-2.78-4-7.83-4h-5.33a27.29,27.29,0,0,1-7.19-.66c-1.9,1.61-2.78,3.19-2.78,5,0,3.89,4.51,5.89,11.39,5.89S1065.1,234,1065.1,230.4Zm-6-40c0-5.47-3-8.35-7-8.35s-7,2.86-7,8.35,3,8.56,7,8.56S1059.12,196,1059.12,190.41Z" transform="translate(-34.71 -149.67)"/></svg>