<?xml version="1.0" encoding="utf-8"?>
<!-- Generator: Adobe Illustrator 25.2.0, SVG Export Plug-In . SVG Version: 6.00 Build 0)  -->
<svg version="1.1" id="Layer_1" xmlns="http://www.w3.org/2000/svg" xmlns:xlink="http://www.w3.org/1999/xlink" x="0px" y="0px"
	 viewBox="0 0 1190.55 841.89" style="enable-background:new 0 0 1190.55 841.89;" xml:space="preserve">
<style type="text/css">
	.st0{fill:#BDCBB0;}
</style>
<g>
	<g>
		<path class="st0" d="M80.59,325.23l22.76-27.18c12.46,10.85,28.62,18.31,43.04,18.31c16.54,0,24.63-6.51,24.63-16.91
			c0-11.03-9.96-14.58-25.26-20.87l-22.78-9.71c-18.16-7.38-35.36-22.3-35.36-47.76c0-29.04,25.93-52.23,62.41-52.23
			c20.17,0,41.28,7.96,56.36,22.96l-20,24.97c-11.54-8.86-22.52-13.73-36.36-13.73c-13.66,0-22.36,5.69-22.36,15.72
			c0,10.75,11.47,14.65,26.76,20.74l22.33,9.04c21.4,8.65,34.75,22.9,34.75,47.67c0,29.09-24.26,54.31-66.02,54.31
			C122.7,350.57,98.46,341.93,80.59,325.23z"/>
		<path class="st0" d="M230.44,280.69c0-44.34,31.22-69.97,64.98-69.97c33.75,0,64.98,25.62,64.98,69.97
			c0,44.25-31.23,69.88-64.98,69.88C261.65,350.57,230.44,324.94,230.44,280.69z M319.89,280.69c0-23.09-8.13-38.07-24.48-38.07
			c-16.35,0-24.48,14.99-24.48,38.07s8.12,37.98,24.48,37.98C311.75,318.67,319.89,303.77,319.89,280.69z"/>
		<path class="st0" d="M387.48,213.95h32.25l2.85,13.12h0.97c10.48-9.33,24.07-16.35,37.99-16.35c32.29,0,52.06,26.7,52.06,67.82
			c0,45.77-27.23,72.02-56.11,72.02c-11.48,0-22.26-5.04-31.82-13.92l1.34,21.1v39.09h-39.53V213.95z M473.1,278.98
			c0-23.94-7.4-35.91-23.17-35.91c-8.13,0-15.12,3.63-22.92,11.94v54.77c7.17,6.26,14.6,8.44,21.28,8.44
			C462.07,318.22,473.1,306.6,473.1,278.98z"/>
		<path class="st0" d="M539.48,158.98H579V205l-1.77,24.17c9.99-9.11,22.99-18.44,41.18-18.44c29.01,0,41.38,20.47,41.38,53.81
			v82.81h-39.53v-77.75c0-19.19-5.16-25.2-16.56-25.2c-9.94,0-16,4.62-24.69,12.96v89.99h-39.53V158.98z"/>
		<path class="st0" d="M690,173.78c0-12.12,9.61-20.66,22.88-20.66c13.26,0,22.87,8.54,22.87,20.66c0,12.02-9.61,20.67-22.87,20.67
			C699.62,194.44,690,185.8,690,173.78z M693.07,213.95h39.53v133.39h-39.53V213.95z"/>
		<path class="st0" d="M759.58,280.69c0-43.27,30.88-69.97,62.92-69.97c37.99,0,56.81,27.62,56.81,64.02
			c0,7.11-0.89,14.24-1.64,17.47h-79.8c3.55,19.34,16.79,28.23,34.6,28.23c10.08,0,19.16-3.08,28.84-8.73l13.07,23.83
			c-13.67,9.46-31.51,15.03-47.33,15.03C789.03,350.57,759.58,324.84,759.58,280.69z M845.55,266.08c0-14.67-6.38-25.23-22.17-25.23
			c-12.49,0-23.27,8.37-25.95,25.23H845.55z"/>
		<path class="st0" d="M905.63,235.38c16.17-7.91,24.29-18.29,24.29-34.23l-1.07-23.19l13,17.97c-4.02,3.23-9.07,5.76-14.53,5.76
			c-11.38,0-20.66-7.56-20.66-19.68c0-13.44,8.64-21.99,20.66-21.99c16.55,0,25.29,12.92,25.29,35.09
			c0,25.37-12.5,44.82-38.25,57.51L905.63,235.38z"/>
		<path class="st0" d="M963.46,331.94l17.79-24.62c12.08,9.14,23.25,14.01,34.41,14.01c11.76,0,16.85-4.49,16.85-11.48
			c0-8.79-13.22-12.76-26.95-18.15c-16.35-6.33-35.29-17.17-35.29-39.22c0-24.84,20.18-41.76,50.95-41.76
			c20.45,0,35.66,8.25,47.01,16.89l-17.69,23.73c-9.49-6.89-18.85-11.38-28.09-11.38c-10.21,0-15.24,4-15.24,10.65
			c0,8.51,12.49,11.77,26.31,16.79c16.89,6.25,35.94,15.75,35.94,40.14c0,24.15-19.05,43.03-54.8,43.03
			C997.08,350.57,976.96,342.94,963.46,331.94z"/>
	</g>
	<g>
		<path class="st0" d="M80.59,402.62h37.95c22.36,0,40.68,7.76,40.68,32.82c0,24.22-18.32,34.65-40.68,34.65h-14.13v37.93H80.59
			V402.62z M116.6,451.17c12.53,0,19.27-5.36,19.27-15.73c0-10.42-6.73-13.9-19.27-13.9h-12.19v29.62H116.6z M114.18,463.81
			l16.48-15.25l33.63,59.45h-26.66L114.18,463.81z"/>
		<path class="st0" d="M171.5,467.93c0-26.02,18.57-42.08,37.84-42.08c22.85,0,34.17,16.61,34.17,38.51c0,4.29-0.53,8.56-0.99,10.51
			h-47.99c2.13,11.63,10.1,16.98,20.81,16.98c6.06,0,11.52-1.84,17.35-5.25l7.86,14.33c-8.22,5.69-18.95,9.04-28.47,9.04
			C189.22,509.96,171.5,494.49,171.5,467.93z M223.2,459.14c0-8.82-3.84-15.17-13.33-15.17c-7.51,0-14,5.04-15.61,15.17H223.2z"/>
		<path class="st0" d="M252.87,498.75l10.7-14.81c7.27,5.5,13.98,8.43,20.7,8.43c7.07,0,10.13-2.7,10.13-6.91
			c0-5.29-7.95-7.68-16.21-10.91c-9.84-3.81-21.22-10.33-21.22-23.59c0-14.94,12.14-25.11,30.64-25.11
			c12.3,0,21.45,4.96,28.27,10.16l-10.64,14.28c-5.71-4.15-11.34-6.85-16.89-6.85c-6.14,0-9.16,2.4-9.16,6.41
			c0,5.12,7.51,7.08,15.83,10.1c10.16,3.76,21.61,9.47,21.61,24.14c0,14.52-11.45,25.88-32.96,25.88
			C273.09,509.96,260.99,505.37,252.87,498.75z"/>
		<path class="st0" d="M326.98,467.93c0-26.02,18.57-42.08,37.84-42.08c22.85,0,34.17,16.61,34.17,38.51
			c0,4.29-0.53,8.56-0.99,10.51H350c2.13,11.63,10.1,16.98,20.81,16.98c6.06,0,11.53-1.84,17.35-5.25l7.86,14.33
			c-8.22,5.69-18.95,9.04-28.47,9.04C344.69,509.96,326.98,494.49,326.98,467.93z M378.68,459.14c0-8.82-3.84-15.17-13.33-15.17
			c-7.51,0-14,5.04-15.61,15.17H378.68z"/>
		<path class="st0" d="M409.98,485.76c0-16.9,13.44-26.05,45.17-29.4c-0.47-7.02-3.98-11.59-12.69-11.59
			c-6.73,0-13.44,2.83-21.22,7.24l-8.45-15.6c10.18-6.22,21.65-10.56,34.27-10.56c20.51,0,31.87,11.72,31.87,36.3v45.87h-19.39
			l-1.71-8.22h-0.59c-6.75,5.93-14.32,10.16-23.34,10.16C419.26,509.96,409.98,499.28,409.98,485.76z M455.15,484.71v-14.02
			c-16.91,2.28-22.42,7.11-22.42,13.18c0,5.17,3.55,7.7,9.2,7.7C447.32,491.57,450.93,488.91,455.15,484.71z"/>
		<path class="st0" d="M498.92,427.79h19.39l1.71,14.02h0.59c5.85-10.71,14.61-15.96,22.79-15.96c4.59,0,7.25,0.59,9.57,1.62
			l-3.96,20.51c-2.86-0.7-5.21-1.29-8.66-1.29c-6.05,0-13.39,3.9-17.67,14.83v46.49h-23.77V427.79z"/>
		<path class="st0" d="M557.04,467.93c0-26.67,19.64-42.08,41.8-42.08c9.87,0,17.47,3.52,23.44,8.64l-11.23,15.28
			c-3.84-3.25-7.06-4.73-10.88-4.73c-11.44,0-18.78,9.01-18.78,22.9s7.65,22.84,17.97,22.84c5.27,0,10.31-2.61,14.48-5.92l9.3,15.55
			c-7.8,6.89-17.75,9.55-26.44,9.55C574.31,509.96,557.04,494.55,557.04,467.93z"/>
		<path class="st0" d="M637.26,394.73h23.77v27.68l-1.07,14.54c6.01-5.48,13.82-11.09,24.77-11.09c17.45,0,24.88,12.31,24.88,32.36
			v49.8h-23.77v-46.76c0-11.54-3.1-15.15-9.96-15.15c-5.97,0-9.62,2.78-14.85,7.79v54.12h-23.77V394.73z"/>
		<path class="st0" d="M763.98,402.62h36.07c21.88,0,38.87,6.01,38.87,26.14c0,9.45-5.29,19.51-13.88,22.75v0.65
			c10.76,2.8,19.08,10.73,19.08,24.81c0,21.44-18.13,31.05-41.05,31.05h-39.08V402.62z M798.95,444.84
			c11.56,0,16.68-4.88,16.68-12.55c0-8.12-5.4-11.27-16.5-11.27H787.8v23.82H798.95z M801.11,489.63c12.99,0,19.7-4.61,19.7-14.2
			c0-9.24-6.6-13.01-19.7-13.01H787.8v27.21H801.11z"/>
		<path class="st0" d="M859.87,483.08v-88.35h23.77v89.33c0,5.1,2.36,6.71,4.3,6.71c0.92,0,1.56,0,2.91-0.32l2.84,17.52
			c-2.63,1.13-6.53,1.98-11.94,1.98C865.45,509.96,859.87,499.32,859.87,483.08z"/>
		<path class="st0" d="M901.49,467.93c0-26.67,18.78-42.08,39.08-42.08s39.08,15.41,39.08,42.08c0,26.62-18.78,42.03-39.08,42.03
			S901.49,494.55,901.49,467.93z M955.28,467.93c0-13.88-4.88-22.9-14.71-22.9s-14.72,9.01-14.72,22.9s4.89,22.84,14.72,22.84
			S955.28,481.81,955.28,467.93z"/>
		<path class="st0" d="M991.01,521.79c0-6.66,3.99-12.04,11.38-16.15v-0.65c-4.15-2.8-7.33-7-7.33-13.63
			c0-5.78,3.84-11.43,8.94-15.02v-0.65c-5.65-3.94-10.76-11.43-10.76-20.81c0-19.26,15.9-29.03,33.18-29.03
			c4.47,0,8.83,0.7,12.42,1.94h29.33v17.32h-12.9c1.5,2.39,2.72,6.37,2.72,10.57c0,18.46-14.04,26.96-31.58,26.96
			c-2.93,0-6.24-0.49-9.8-1.56c-1.96,1.71-2.8,3.14-2.8,5.97c0,3.96,3.24,5.88,12.01,5.88h13.01c19.67,0,30.63,6.03,30.63,20.39
			c0,16.66-17.37,28.8-44.9,28.8C1005.91,542.12,991.01,536.05,991.01,521.79z M1046.7,517.37c0-5.06-4.33-6.21-12.23-6.21h-8.33
			c-5.5,0-8.64-0.32-11.24-1.03c-2.97,2.51-4.34,4.98-4.34,7.87c0,6.08,7.04,9.2,17.79,9.2
			C1039.06,527.2,1046.7,522.93,1046.7,517.37z M1037.37,454.88c0-8.55-4.64-13.05-10.95-13.05c-6.31,0-10.95,4.47-10.95,13.05
			c0,8.79,4.69,13.37,10.95,13.37C1032.67,468.25,1037.37,463.67,1037.37,454.88z"/>
	</g>
</g>
</svg>
